<?xml version="1.0" encoding="UTF-8"?>
<!DOCTYPE svg PUBLIC "-//W3C//DTD SVG 1.1//EN" "http://www.w3.org/Graphics/SVG/1.1/DTD/svg11.dtd">
<!-- Creator: CorelDRAW 2020 (64-Bit) -->
<svg xmlns="http://www.w3.org/2000/svg" xml:space="preserve" width="57.9208mm" height="52.9168mm" version="1.1" style="shape-rendering:geometricPrecision; text-rendering:geometricPrecision; image-rendering:optimizeQuality; fill-rule:evenodd; clip-rule:evenodd"
viewBox="0 0 637.2 582.15"
 xmlns:xlink="http://www.w3.org/1999/xlink"
 xmlns:xodm="http://www.corel.com/coreldraw/odm/2003">
 <defs>
  <style type="text/css">
   <![CDATA[
    .fil0 {fill:black}
   ]]>
  </style>
 </defs>
 <g id="Layer_x0020_1">
  <metadata id="CorelCorpID_0Corel-Layer"/>
  <g id="_2575548201040">
   <path class="fil0" d="M293.99 0c-391.82,6.53 -392.14,574.4 0,582.15 33.6,-34.19 64.2,-80.6 80.9,-129.1 24.69,-71.7 19.01,-147.96 -52.23,-196.04 0,0 70.27,-33.25 156.46,-6.23 24.43,7.66 50.14,20.16 75.89,39.62 17.24,13.03 46.13,51.15 66.33,35.64 48.17,-36.99 -0.48,-318.87 -327.36,-326.05zm24.62 204.35l0 -155.43c0,0 123.4,-9.9 200.25,77.72 0,0 -25.61,23.58 -30.27,77.72 0,0 -77.43,-30.27 -169.98,0zm-50.08 -155.43l0 197.93c0,0 -18.63,73.93 -98.97,66.37 -117.85,-11.1 -91.63,-249.17 98.97,-264.3z"/>
   <circle class="fil0" cx="221.66" cy="166.21" r="23.58"/>
  </g>
 </g>
</svg>
