<?xml version="1.0" encoding="UTF-8"?>
<!DOCTYPE svg PUBLIC "-//W3C//DTD SVG 1.1//EN" "http://www.w3.org/Graphics/SVG/1.1/DTD/svg11.dtd">
<!-- Creator: CorelDRAW 2020 (64-Bit) -->
<svg xmlns="http://www.w3.org/2000/svg" xml:space="preserve" width="57.9208mm" height="52.9168mm" version="1.1" style="shape-rendering:geometricPrecision; text-rendering:geometricPrecision; image-rendering:optimizeQuality; fill-rule:evenodd; clip-rule:evenodd"
viewBox="0 0 850.18 776.73"
 xmlns:xlink="http://www.w3.org/1999/xlink"
 xmlns:xodm="http://www.corel.com/coreldraw/odm/2003">
 <defs>
  <style type="text/css">
   <![CDATA[
    .fil0 {fill:white}
   ]]>
  </style>
 </defs>
 <g id="Layer_x0020_1">
  <metadata id="CorelCorpID_0Corel-Layer"/>
  <g id="_2575624351120">
   <path class="fil0" d="M392.25 0c-522.79,8.71 -523.2,766.38 0,776.73 44.84,-45.62 85.66,-107.54 107.94,-172.24 32.95,-95.67 25.37,-197.42 -69.68,-261.56 0,0 93.75,-44.36 208.75,-8.31 32.59,10.22 66.9,26.89 101.26,52.87 23,17.39 61.55,68.25 88.5,47.55 64.27,-49.35 -0.65,-425.44 -436.77,-435.03zm32.84 272.65l0 -207.39c0,0 164.65,-13.2 267.18,103.69 0,0 -34.17,31.46 -40.39,103.69 0,0 -103.31,-40.39 -226.79,0zm-66.82 -207.39l0 264.09c0,0 -24.85,98.64 -132.04,88.55 -157.24,-14.81 -122.26,-332.45 132.04,-352.63z"/>
   <circle class="fil0" cx="295.75" cy="221.76" r="31.46"/>
  </g>
 </g>
</svg>
